<?xml version="1.0" encoding="UTF-8" standalone="no"?>
<svg
   xmlns:dc="http://purl.org/dc/elements/1.1/"
   xmlns:cc="http://creativecommons.org/ns#"
   xmlns:rdf="http://www.w3.org/1999/02/22-rdf-syntax-ns#"
   xmlns:svg="http://www.w3.org/2000/svg"
   xmlns="http://www.w3.org/2000/svg"
   id="svg80"
   version="1.1"
   viewBox="0 0 502 228"
   height="228px"
   width="502px">
  <metadata
     id="metadata86">
    <rdf:RDF>
      <cc:Work
         rdf:about="">
        <dc:format>image/svg+xml</dc:format>
        <dc:type
           rdf:resource="http://purl.org/dc/dcmitype/StillImage" />
        <dc:title>brXM Developer Edition</dc:title>
      </cc:Work>
    </rdf:RDF>
  </metadata>
  <defs
     id="defs84" />
  <!-- Generator: Sketch 58 (84663) - https://sketch.com -->
  <title
     id="title68">brXM Developer Edition</title>
  <desc
     id="desc70">Created with Sketch.</desc>
  <g
     id="g106">
    <g
       id="br"
       transform="translate(1,35.759758)"
       style="fill:#000000;fill-rule:nonzero;stroke:none;stroke-width:1">
      <path
         d="m 177.16,87.27 c -0.56,-0.64 -1.17,-1.25 -1.78,-1.85 -0.04,-0.04 -0.08,-0.06 -0.11,-0.1 -0.58,-0.54 -1.2,-1.06 -1.84,-1.53 -0.07,-0.07 -0.17,-0.14 -0.26,-0.21 -0.58,-0.43 -1.18,-0.83 -1.82,-1.22 -0.13,-0.08 -0.26,-0.17 -0.4,-0.26 -0.58,-0.33 -1.18,-0.64 -1.79,-0.95 -0.19,-0.1 -0.38,-0.18 -0.57,-0.28 -0.58,-0.25 -1.17,-0.49 -1.77,-0.71 -0.24,-0.08 -0.46,-0.18 -0.7,-0.25 -0.58,-0.19 -1.17,-0.35 -1.77,-0.5 l -0.79,-0.21 c -0.63,-0.13 -1.24,-0.22 -1.88,-0.31 -0.25,-0.04 -0.5,-0.1 -0.76,-0.13 -0.88,-0.1 -1.78,-0.14 -2.7,-0.14 -13.79,0 -25,11.11 -25.14,24.87 v 47.19 h -25.14 v -47.19 c 0.08,-18.52 10.16,-34.66 25.14,-43.32 v 0.03 c -0.47,0.26 -0.93,0.54 -1.39,0.85 0.46,-0.28 0.92,-0.56 1.39,-0.83 v -0.01 c 7.38,-4.28 15.98,-6.73 25.14,-6.73 14.53,0 27.58,6.16 36.73,16"
         id="Path" />
      <path
         d="m 50.97,51.1 c -9.29,0 -18,2.48 -25.49,6.82 v 0.01 C 25,58.21 24.54,58.49 24.07,58.78 24.54,58.47 25,58.19 25.48,57.92 V 0.13 H 0 v 101.96 c 0,28.15 22.82,50.98 50.97,50.98 28.16,0 50.98001,-22.84 50.98001,-50.98 C 101.96,73.92 79.13,51.1 50.97,51.1 Z m 0,76.48 C 36.9,127.58 25.48,116.16 25.48,102.08 25.48,88 36.9,76.6 50.97,76.6 c 0.93,0 1.85,0.04 2.73,0.14 0.27,0.03 0.52,0.08 0.78,0.13 0.65,0.08 1.27,0.18 1.9,0.31 l 0.8,0.21 c 0.61,0.16 1.2,0.31 1.79,0.51 0.24,0.07 0.47,0.17 0.7,0.25 0.61,0.23 1.2,0.47 1.79,0.72 0.2,0.1 0.38,0.18 0.58,0.28 0.62,0.31 1.23,0.62 1.82,0.96 0.14,0.1 0.28,0.18 0.41,0.27 0.65,0.39 1.25,0.8 1.85,1.24 0.1,0.07 0.2,0.14 0.27,0.21 0.65,0.48 1.27,1 1.86,1.55 0.03,0.04 0.07,0.06 0.11,0.1 0.62,0.61 1.24,1.23 1.8,1.87 3.92,4.48 6.300013,10.32 6.300013,16.73 C 76.47,116.16 65.05,127.58 50.97,127.58 Z"
         id="Shape" />
    </g>
    <g
       id="XM"
       transform="translate(193.5,30.759758)"
       style="fill:#00b2db;fill-rule:nonzero;stroke:none;stroke-width:1">
      <path
         d="M 26.423378,157.2979 H 0.876503 L 56.866737,77.14458 4.389198,0.9297359 H 30.894081 L 70.811073,60.752002 110.40873,0.9297359 h 25.22754 L 83.15873,77.14458 138.19096,157.2979 h -26.292 L 69.74662,93.004931 Z M 157.88334,0.9297359 h 30.33691 L 233.14017,133.13481 277.74076,0.9297359 h 30.01758 V 157.2979 H 287.64017 V 65.009814 c 0,-3.193375 0.071,-8.480106 0.2129,-15.860352 0.14192,-7.380245 0.21289,-15.292601 0.21289,-23.737304 L 243.46537,157.2979 H 222.49564 L 177.57572,25.412158 v 4.790039 c 0,3.83205 0.0887,9.668743 0.26611,17.510254 0.17741,7.84151 0.26612,13.60724 0.26612,17.297363 V 157.2979 h -20.22461 z"
         id="path-1" />
    </g>
  </g>
</svg>
